<?xml version="1.0" encoding="utf-8"?>
<svg xmlns="http://www.w3.org/2000/svg" viewBox="0 0 50 50" width="500" height="500">
  <path d="M21 0C19.355469 0 18 1.355469 18 3L18 5L10.1875 5C10.0625 4.976563 9.9375 4.976563 9.8125 5L8 5C7.96875 5 7.9375 5 7.90625 5C7.355469 5.027344 6.925781 5.496094 6.953125 6.046875C6.980469 6.597656 7.449219 7.027344 8 7L9.09375 7L12.6875 47.5C12.8125 48.898438 14.003906 50 15.40625 50L34.59375 50C35.996094 50 37.1875 48.898438 37.3125 47.5L40.90625 7L42 7C42.359375 7.003906 42.695313 6.816406 42.878906 6.503906C43.058594 6.191406 43.058594 5.808594 42.878906 5.496094C42.695313 5.183594 42.359375 4.996094 42 5L32 5L32 3C32 1.355469 30.644531 0 29 0 Z M 21 2L29 2C29.5625 2 30 2.4375 30 3L30 5L20 5L20 3C20 2.4375 20.4375 2 21 2 Z M 11.09375 7L38.90625 7L35.3125 47.34375C35.28125 47.691406 34.910156 48 34.59375 48L15.40625 48C15.089844 48 14.71875 47.691406 14.6875 47.34375 Z M 18.90625 9.96875C18.863281 9.976563 18.820313 9.988281 18.78125 10C18.316406 10.105469 17.988281 10.523438 18 11L18 44C17.996094 44.359375 18.183594 44.695313 18.496094 44.878906C18.808594 45.058594 19.191406 45.058594 19.503906 44.878906C19.816406 44.695313 20.003906 44.359375 20 44L20 11C20.011719 10.710938 19.894531 10.433594 19.6875 10.238281C19.476563 10.039063 19.191406 9.941406 18.90625 9.96875 Z M 24.90625 9.96875C24.863281 9.976563 24.820313 9.988281 24.78125 10C24.316406 10.105469 23.988281 10.523438 24 11L24 44C23.996094 44.359375 24.183594 44.695313 24.496094 44.878906C24.808594 45.058594 25.191406 45.058594 25.503906 44.878906C25.816406 44.695313 26.003906 44.359375 26 44L26 11C26.011719 10.710938 25.894531 10.433594 25.6875 10.238281C25.476563 10.039063 25.191406 9.941406 24.90625 9.96875 Z M 30.90625 9.96875C30.863281 9.976563 30.820313 9.988281 30.78125 10C30.316406 10.105469 29.988281 10.523438 30 11L30 44C29.996094 44.359375 30.183594 44.695313 30.496094 44.878906C30.808594 45.058594 31.191406 45.058594 31.503906 44.878906C31.816406 44.695313 32.003906 44.359375 32 44L32 11C32.011719 10.710938 31.894531 10.433594 31.6875 10.238281C31.476563 10.039063 31.191406 9.941406 30.90625 9.96875Z" fill="#FFFFFF" />
</svg>